<?xml version="1.0" encoding="utf-8"?>
<!-- Generator: Adobe Illustrator 27.5.0, SVG Export Plug-In . SVG Version: 6.00 Build 0)  -->
<svg version="1.1" xmlns="http://www.w3.org/2000/svg" xmlns:xlink="http://www.w3.org/1999/xlink" x="0px" y="0px"
	 viewBox="0 0 500 500" style="enable-background:new 0 0 500 500;" xml:space="preserve">
<g id="BACKGROUND">
</g>
<g id="OBJECTS">
	<path style="fill:#E8E0FE;" d="M100.607,380.086c0.113,31.263,15.662,59.09,39.378,76.212h220.15
		c48.565-21.291,82.508-69.454,83.103-126.01c0.519-49.337-24.634-92.829-62.922-117.952
		c-22.204-14.569-39.948-35.141-50.654-59.445c-21.566-48.96-70.514-83.14-127.448-83.14c-76.878,0-139.2,62.322-139.2,139.2
		c0,25.119,6.655,48.682,18.297,69.025c16.009,27.974,23.015,60.1,19.777,92.168C100.758,373.411,100.595,376.728,100.607,380.086z"
		/>
	<g>
		<g>
			<g>
				<path style="fill:#01BCFF;" d="M268.572,79.044c0,0,4.655-4.308,12.964,0c6.19,3.209,4.001,10.771,11.848,12.926
					c7.848,2.154,10.771-1.077,21.389,4.155c11.455,5.645,9.54,17.388,9.54,17.388l-24.466,33.391L246.298,126.9l0.923-40.777
					L268.572,79.044z"/>
				<path style="fill:#01BCFF;" d="M221.18,79.044c0,0-4.655-4.308-12.964,0c-6.19,3.209-4.001,10.771-11.848,12.926
					c-7.848,2.154-10.771-1.077-21.389,4.155c-11.455,5.645-9.54,17.388-9.54,17.388l24.466,33.391l53.549-20.004l-0.923-40.777
					L221.18,79.044z"/>
			</g>
			<path style="fill:#FF9492;" d="M150.827,456.809h73.901c0.67,0,1.228-0.512,1.286-1.179l17.747-205.041l30.611,205.12
				c0.094,0.632,0.637,1.1,1.276,1.1h78.215c1.401,0,1.798-1.918,0.513-2.474l-23.867-10.335c-0.064-0.028-0.128-0.06-0.187-0.097
				c-4.526-2.773-7.534-7.467-8.162-12.741L288.693,149.75l19.846,39.321c0.387,0.767,1.402,0.949,2.031,0.363l29.859-27.778
				c0.5-0.465,0.551-1.239,0.117-1.766l-42.749-51.87c-8.893-10.791-24.128-13.879-36.521-7.402l-15.377,8.036
				c-0.458,0.239-1.015,0.182-1.415-0.145l-7.106-5.818c-13.751-11.258-34.134-8.662-44.625,5.683l-46.016,62.924
				c-0.45,0.615-0.271,1.484,0.385,1.872l42.767,25.3c0.76,0.45,1.737,0.02,1.92-0.844l8.253-39.029L181.42,431.004
				c-0.271,3.964-2.551,7.512-6.04,9.406c-0.048,0.026-0.097,0.05-0.148,0.071l-25.525,10.806
				C146.822,452.508,147.694,456.809,150.827,456.809z"/>
			<g>
				<path style="fill:#38AA3E;" d="M292.962,185.645l-4.269-35.895l19.846,39.321c0.387,0.767,1.402,0.949,2.031,0.363
					l29.859-27.778c0.5-0.465,0.551-1.239,0.117-1.766l-42.749-51.87c-8.893-10.791-24.128-13.879-36.521-7.402l-15.377,8.036
					c-0.458,0.239-1.015,0.182-1.415-0.145l-7.106-5.818c-13.751-11.258-34.134-8.662-44.625,5.683l-45.743,62.551l12.24,9.42
					l30.639,18.125c0.76,0.45,1.737,0.02,1.92-0.844l8.253-39.029l-1.862,27.207l0,0L292.962,185.645L292.962,185.645z"/>
				<g>
					<defs>
						<path id="SVGID_1_" d="M292.962,185.645l-4.269-35.895l19.846,39.321c0.387,0.767,1.402,0.949,2.031,0.363l29.859-27.778
							c0.5-0.465,0.551-1.239,0.117-1.766l-42.749-51.87c-8.893-10.791-24.128-13.879-36.521-7.402l-15.377,8.036
							c-0.458,0.239-1.015,0.182-1.415-0.145l-7.106-5.818c-13.751-11.258-34.134-8.662-44.625,5.683l-45.743,62.551l12.24,9.42
							l30.639,18.125c0.76,0.45,1.737,0.02,1.92-0.844l8.253-39.029l-1.862,27.207l0,0L292.962,185.645L292.962,185.645z"/>
					</defs>
					<clipPath id="SVGID_00000074440706501321063200000009376920519282903198_">
						<use xlink:href="#SVGID_1_"  style="overflow:visible;"/>
					</clipPath>
					<g style="clip-path:url(#SVGID_00000074440706501321063200000009376920519282903198_);">
						<path style="fill:#8150FE;" d="M254.48,29.135c-2.472,1.344-5.565,0.429-6.909-2.043c-1.344-2.472-0.429-5.565,2.043-6.909
							c2.472-1.344,5.565-0.429,6.909,2.043C257.867,24.698,256.952,27.791,254.48,29.135z"/>
						<path style="fill:#8150FE;" d="M235.481,39.464c-2.472,1.344-5.565,0.429-6.909-2.043c-1.344-2.472-0.429-5.565,2.043-6.909
							c2.472-1.344,5.565-0.429,6.909,2.043S237.953,38.12,235.481,39.464z"/>
						<path style="fill:#8150FE;" d="M216.481,49.792c-2.472,1.344-5.565,0.429-6.909-2.043c-1.344-2.472-0.429-5.565,2.043-6.909
							c2.472-1.344,5.565-0.429,6.909,2.043C219.868,45.355,218.953,48.449,216.481,49.792z"/>
						<path style="fill:#8150FE;" d="M197.482,60.121c-2.472,1.344-5.565,0.429-6.909-2.043c-1.344-2.472-0.429-5.565,2.043-6.909
							c2.472-1.344,5.565-0.429,6.909,2.043C200.868,55.684,199.954,58.778,197.482,60.121z"/>
						<path style="fill:#8150FE;" d="M178.482,70.45c-2.472,1.344-5.565,0.429-6.909-2.043c-1.344-2.472-0.429-5.565,2.043-6.909
							c2.472-1.344,5.565-0.429,6.909,2.043C181.869,66.013,180.954,69.106,178.482,70.45z"/>
						<path style="fill:#8150FE;" d="M159.482,80.779c-2.472,1.344-5.565,0.429-6.909-2.043c-1.344-2.472-0.429-5.565,2.043-6.909
							c2.472-1.344,5.565-0.429,6.909,2.043C162.869,76.342,161.954,79.435,159.482,80.779z"/>
						<path style="fill:#8150FE;" d="M140.483,91.108c-2.472,1.344-5.565,0.429-6.909-2.043c-1.344-2.472-0.429-5.565,2.043-6.909
							c2.472-1.344,5.565-0.429,6.909,2.043C143.869,86.671,142.955,89.764,140.483,91.108z"/>
						<path style="fill:#8150FE;" d="M266.217,50.724c-2.472,1.344-5.565,0.429-6.909-2.043c-1.344-2.472-0.429-5.565,2.043-6.909
							c2.472-1.344,5.565-0.429,6.909,2.043C269.603,46.287,268.689,49.38,266.217,50.724z"/>
						<path style="fill:#8150FE;" d="M247.217,61.053c-2.472,1.344-5.565,0.429-6.909-2.043c-1.344-2.472-0.429-5.565,2.043-6.909
							c2.472-1.344,5.565-0.429,6.909,2.043S249.689,59.709,247.217,61.053z"/>
						<path style="fill:#8150FE;" d="M228.218,71.382c-2.472,1.344-5.565,0.429-6.909-2.043c-1.344-2.472-0.429-5.565,2.043-6.909
							c2.472-1.344,5.565-0.429,6.909,2.043C231.604,66.944,230.69,70.038,228.218,71.382z"/>
						<path style="fill:#8150FE;" d="M209.218,81.711c-2.472,1.344-5.565,0.429-6.909-2.043c-1.344-2.472-0.429-5.565,2.043-6.909
							c2.472-1.344,5.565-0.429,6.909,2.043C212.605,77.273,211.69,80.367,209.218,81.711z"/>
						<path style="fill:#8150FE;" d="M190.219,92.039c-2.472,1.344-5.565,0.429-6.909-2.043c-1.344-2.472-0.429-5.565,2.043-6.909
							c2.472-1.344,5.565-0.429,6.909,2.043C193.605,87.602,192.691,90.696,190.219,92.039z"/>
						<path style="fill:#8150FE;" d="M171.219,102.368c-2.472,1.344-5.565,0.429-6.909-2.043c-1.344-2.472-0.429-5.565,2.043-6.909
							c2.472-1.344,5.565-0.429,6.909,2.043C174.606,97.931,173.691,101.024,171.219,102.368z"/>
						<path style="fill:#8150FE;" d="M152.22,112.697c-2.472,1.344-5.565,0.429-6.909-2.043c-1.344-2.472-0.429-5.565,2.043-6.909
							s5.565-0.429,6.909,2.043C155.606,108.26,154.692,111.353,152.22,112.697z"/>
						<path style="fill:#8150FE;" d="M277.954,72.313c-2.472,1.344-5.565,0.429-6.909-2.043c-1.344-2.472-0.429-5.565,2.043-6.909
							c2.472-1.344,5.565-0.429,6.909,2.043C281.34,67.876,280.426,70.969,277.954,72.313z"/>
						<path style="fill:#8150FE;" d="M258.954,82.642c-2.472,1.344-5.565,0.429-6.909-2.043c-1.344-2.472-0.429-5.565,2.043-6.909
							c2.472-1.344,5.565-0.429,6.909,2.043S261.426,81.298,258.954,82.642z"/>
						<path style="fill:#8150FE;" d="M239.955,92.971c-2.472,1.344-5.565,0.429-6.909-2.043s-0.429-5.565,2.043-6.909
							c2.472-1.344,5.565-0.429,6.909,2.043C243.341,88.534,242.427,91.627,239.955,92.971z"/>
						<path style="fill:#8150FE;" d="M220.955,103.3c-2.472,1.344-5.565,0.429-6.909-2.043c-1.344-2.472-0.429-5.565,2.043-6.909
							s5.565-0.429,6.909,2.043C224.341,98.863,223.427,101.956,220.955,103.3z"/>
						<path style="fill:#8150FE;" d="M201.955,113.629c-2.472,1.344-5.565,0.429-6.909-2.043c-1.344-2.472-0.429-5.565,2.043-6.909
							c2.472-1.344,5.565-0.429,6.909,2.043C205.342,109.191,204.427,112.285,201.955,113.629z"/>
						<path style="fill:#8150FE;" d="M182.956,123.957c-2.472,1.344-5.565,0.429-6.909-2.043c-1.344-2.472-0.429-5.565,2.043-6.909
							c2.472-1.344,5.565-0.429,6.909,2.043C186.342,119.52,185.428,122.614,182.956,123.957z"/>
						<path style="fill:#8150FE;" d="M163.956,134.286c-2.472,1.344-5.565,0.429-6.909-2.043c-1.344-2.472-0.429-5.565,2.043-6.909
							c2.472-1.344,5.565-0.429,6.909,2.043C167.343,129.849,166.428,132.943,163.956,134.286z"/>
						<path style="fill:#8150FE;" d="M289.69,93.902c-2.472,1.344-5.565,0.429-6.909-2.043c-1.344-2.472-0.429-5.565,2.043-6.909
							c2.472-1.344,5.565-0.429,6.909,2.043C293.077,89.465,292.162,92.559,289.69,93.902z"/>
						<path style="fill:#8150FE;" d="M270.691,104.231c-2.472,1.344-5.565,0.429-6.909-2.043c-1.344-2.472-0.429-5.565,2.043-6.909
							c2.472-1.344,5.565-0.429,6.909,2.043S273.163,102.887,270.691,104.231z"/>
						<path style="fill:#8150FE;" d="M251.691,114.56c-2.472,1.344-5.565,0.429-6.909-2.043c-1.344-2.472-0.429-5.565,2.043-6.909
							c2.472-1.344,5.565-0.429,6.909,2.043C255.078,110.123,254.163,113.216,251.691,114.56z"/>
						<path style="fill:#8150FE;" d="M232.692,124.889c-2.472,1.344-5.565,0.429-6.909-2.043c-1.344-2.472-0.429-5.565,2.043-6.909
							c2.472-1.344,5.565-0.429,6.909,2.043C236.078,120.452,235.164,123.545,232.692,124.889z"/>
						<path style="fill:#8150FE;" d="M213.692,135.218c-2.472,1.344-5.565,0.429-6.909-2.043c-1.344-2.472-0.429-5.565,2.043-6.909
							c2.472-1.344,5.565-0.429,6.909,2.043C217.079,130.781,216.164,133.874,213.692,135.218z"/>
						<path style="fill:#8150FE;" d="M194.693,145.547c-2.472,1.344-5.565,0.429-6.909-2.043c-1.344-2.472-0.429-5.565,2.043-6.909
							c2.472-1.344,5.565-0.429,6.909,2.043C198.079,141.109,197.165,144.203,194.693,145.547z"/>
						<path style="fill:#8150FE;" d="M175.693,155.876c-2.472,1.344-5.565,0.429-6.909-2.043c-1.344-2.472-0.429-5.565,2.043-6.909
							c2.472-1.344,5.565-0.429,6.909,2.043C179.08,151.438,178.165,154.532,175.693,155.876z"/>
						<path style="fill:#8150FE;" d="M301.427,115.492c-2.472,1.344-5.565,0.429-6.909-2.043c-1.344-2.472-0.429-5.565,2.043-6.909
							c2.472-1.344,5.565-0.429,6.909,2.043C304.814,111.054,303.899,114.148,301.427,115.492z"/>
						<path style="fill:#8150FE;" d="M282.428,125.82c-2.472,1.344-5.565,0.429-6.909-2.043c-1.344-2.472-0.429-5.565,2.043-6.909
							c2.472-1.344,5.565-0.429,6.909,2.043S284.9,124.477,282.428,125.82z"/>
						<path style="fill:#8150FE;" d="M263.428,136.149c-2.472,1.344-5.565,0.429-6.909-2.043s-0.429-5.565,2.043-6.909
							c2.472-1.344,5.565-0.429,6.909,2.043C266.814,131.712,265.9,134.805,263.428,136.149z"/>
						<path style="fill:#8150FE;" d="M244.428,146.478c-2.472,1.344-5.565,0.429-6.909-2.043c-1.344-2.472-0.429-5.565,2.043-6.909
							c2.472-1.344,5.565-0.429,6.909,2.043C247.815,142.041,246.9,145.134,244.428,146.478z"/>
						<path style="fill:#8150FE;" d="M225.429,156.807c-2.472,1.344-5.565,0.429-6.909-2.043c-1.344-2.472-0.429-5.565,2.043-6.909
							c2.472-1.344,5.565-0.429,6.909,2.043C228.815,152.37,227.901,155.463,225.429,156.807z"/>
						<path style="fill:#8150FE;" d="M206.429,167.136c-2.472,1.344-5.565,0.429-6.909-2.043c-1.344-2.472-0.429-5.565,2.043-6.909
							c2.472-1.344,5.565-0.429,6.909,2.043C209.816,162.699,208.901,165.792,206.429,167.136z"/>
						<path style="fill:#8150FE;" d="M187.43,177.465c-2.472,1.344-5.565,0.429-6.909-2.043c-1.344-2.472-0.429-5.565,2.043-6.909
							c2.472-1.344,5.565-0.429,6.909,2.043C190.816,173.027,189.902,176.121,187.43,177.465z"/>
						<path style="fill:#8150FE;" d="M313.164,137.081c-2.472,1.344-5.565,0.429-6.909-2.043c-1.344-2.472-0.429-5.565,2.043-6.909
							c2.472-1.344,5.565-0.429,6.909,2.043C316.55,132.643,315.636,135.737,313.164,137.081z"/>
						<path style="fill:#8150FE;" d="M294.164,147.41c-2.472,1.344-5.565,0.429-6.909-2.043c-1.344-2.472-0.429-5.565,2.043-6.909
							c2.472-1.344,5.565-0.429,6.909,2.043C297.551,142.972,296.636,146.066,294.164,147.41z"/>
						<path style="fill:#8150FE;" d="M275.165,157.738c-2.472,1.344-5.565,0.429-6.909-2.043s-0.429-5.565,2.043-6.909
							c2.472-1.344,5.565-0.429,6.909,2.043C278.551,153.301,277.637,156.395,275.165,157.738z"/>
						<path style="fill:#8150FE;" d="M256.165,168.067c-2.472,1.344-5.565,0.429-6.909-2.043c-1.344-2.472-0.429-5.565,2.043-6.909
							c2.472-1.344,5.565-0.429,6.909,2.043C259.552,163.63,258.637,166.723,256.165,168.067z"/>
						<path style="fill:#8150FE;" d="M237.166,178.396c-2.472,1.344-5.565,0.429-6.909-2.043c-1.344-2.472-0.429-5.565,2.043-6.909
							c2.472-1.344,5.565-0.429,6.909,2.043S239.637,177.052,237.166,178.396z"/>
						<path style="fill:#8150FE;" d="M218.166,188.725c-2.472,1.344-5.565,0.429-6.909-2.043c-1.344-2.472-0.429-5.565,2.043-6.909
							c2.472-1.344,5.565-0.429,6.909,2.043C221.552,184.288,220.638,187.381,218.166,188.725z"/>
						<path style="fill:#8150FE;" d="M199.166,199.054c-2.472,1.344-5.565,0.429-6.909-2.043c-1.344-2.472-0.429-5.565,2.043-6.909
							s5.565-0.429,6.909,2.043C202.553,194.617,201.638,197.71,199.166,199.054z"/>
						<path style="fill:#8150FE;" d="M324.9,158.67c-2.472,1.344-5.565,0.429-6.909-2.043c-1.344-2.472-0.429-5.565,2.043-6.909
							c2.472-1.344,5.565-0.429,6.909,2.043C328.287,154.233,327.372,157.326,324.9,158.67z"/>
						<path style="fill:#8150FE;" d="M305.901,168.999c-2.472,1.344-5.565,0.429-6.909-2.043c-1.344-2.472-0.429-5.565,2.043-6.909
							c2.472-1.344,5.565-0.429,6.909,2.043C309.287,164.562,308.373,167.655,305.901,168.999z"/>
						<path style="fill:#8150FE;" d="M286.901,179.328c-2.472,1.344-5.565,0.429-6.909-2.043s-0.429-5.565,2.043-6.909
							c2.472-1.344,5.565-0.429,6.909,2.043C290.288,174.89,289.373,177.984,286.901,179.328z"/>
						<path style="fill:#8150FE;" d="M267.902,189.656c-2.472,1.344-5.565,0.429-6.909-2.043c-1.344-2.472-0.429-5.565,2.043-6.909
							c2.472-1.344,5.565-0.429,6.909,2.043C271.288,185.219,270.374,188.313,267.902,189.656z"/>
						<path style="fill:#8150FE;" d="M248.902,199.985c-2.472,1.344-5.565,0.429-6.909-2.043c-1.344-2.472-0.429-5.565,2.043-6.909
							c2.472-1.344,5.565-0.429,6.909,2.043C252.289,195.548,251.374,198.641,248.902,199.985z"/>
						<path style="fill:#8150FE;" d="M229.903,210.314c-2.472,1.344-5.565,0.429-6.909-2.043c-1.344-2.472-0.429-5.565,2.043-6.909
							c2.472-1.344,5.565-0.429,6.909,2.043C233.289,205.877,232.375,208.97,229.903,210.314z"/>
						<path style="fill:#8150FE;" d="M210.903,220.643c-2.472,1.344-5.565,0.429-6.909-2.043c-1.344-2.472-0.429-5.565,2.043-6.909
							s5.565-0.429,6.909,2.043C214.29,216.206,213.375,219.299,210.903,220.643z"/>
						<path style="fill:#8150FE;" d="M336.637,180.259c-2.472,1.344-5.565,0.429-6.909-2.043s-0.429-5.565,2.043-6.909
							c2.472-1.344,5.565-0.429,6.909,2.043C340.024,175.822,339.109,178.915,336.637,180.259z"/>
						<path style="fill:#8150FE;" d="M317.638,190.588c-2.472,1.344-5.565,0.429-6.909-2.043c-1.344-2.472-0.429-5.565,2.043-6.909
							c2.472-1.344,5.565-0.429,6.909,2.043C321.024,186.151,320.11,189.244,317.638,190.588z"/>
						<path style="fill:#8150FE;" d="M298.638,200.917c-2.472,1.344-5.565,0.429-6.909-2.043c-1.344-2.472-0.429-5.565,2.043-6.909
							c2.472-1.344,5.565-0.429,6.909,2.043C302.025,196.48,301.11,199.573,298.638,200.917z"/>
						<path style="fill:#8150FE;" d="M279.638,211.246c-2.472,1.344-5.565,0.429-6.909-2.043c-1.344-2.472-0.429-5.565,2.043-6.909
							c2.472-1.344,5.565-0.429,6.909,2.043C283.025,206.809,282.111,209.902,279.638,211.246z"/>
						<path style="fill:#8150FE;" d="M260.639,221.575c-2.472,1.344-5.565,0.429-6.909-2.043c-1.344-2.472-0.429-5.565,2.043-6.909
							c2.472-1.344,5.565-0.429,6.909,2.043C264.025,217.137,263.111,220.231,260.639,221.575z"/>
						<path style="fill:#8150FE;" d="M241.639,231.904c-2.472,1.344-5.565,0.429-6.909-2.043s-0.429-5.565,2.043-6.909
							c2.472-1.344,5.565-0.429,6.909,2.043C245.026,227.466,244.111,230.56,241.639,231.904z"/>
						<path style="fill:#8150FE;" d="M222.64,242.232c-2.472,1.344-5.565,0.429-6.909-2.043c-1.344-2.472-0.429-5.565,2.043-6.909
							s5.565-0.429,6.909,2.043C226.026,237.795,225.112,240.889,222.64,242.232z"/>
						<path style="fill:#8150FE;" d="M348.374,201.848c-2.472,1.344-5.565,0.429-6.909-2.043s-0.429-5.565,2.043-6.909
							c2.472-1.344,5.565-0.429,6.909,2.043C351.76,197.411,350.846,200.505,348.374,201.848z"/>
						<path style="fill:#8150FE;" d="M329.374,212.177c-2.472,1.344-5.565,0.429-6.909-2.043c-1.344-2.472-0.429-5.565,2.043-6.909
							c2.472-1.344,5.565-0.429,6.909,2.043C332.761,207.74,331.846,210.833,329.374,212.177z"/>
						<path style="fill:#8150FE;" d="M310.375,222.506c-2.472,1.344-5.565,0.429-6.909-2.043c-1.344-2.472-0.429-5.565,2.043-6.909
							c2.472-1.344,5.565-0.429,6.909,2.043C313.761,218.069,312.847,221.162,310.375,222.506z"/>
						<path style="fill:#8150FE;" d="M291.375,232.835c-2.472,1.344-5.565,0.429-6.909-2.043c-1.344-2.472-0.429-5.565,2.043-6.909
							c2.472-1.344,5.565-0.429,6.909,2.043C294.762,228.398,293.847,231.491,291.375,232.835z"/>
						<path style="fill:#8150FE;" d="M272.376,243.164c-2.472,1.344-5.565,0.429-6.909-2.043c-1.344-2.472-0.429-5.565,2.043-6.909
							c2.472-1.344,5.565-0.429,6.909,2.043S274.848,241.82,272.376,243.164z"/>
						<path style="fill:#8150FE;" d="M253.376,253.493c-2.472,1.344-5.565,0.429-6.909-2.043c-1.344-2.472-0.429-5.565,2.043-6.909
							c2.472-1.344,5.565-0.429,6.909,2.043C256.763,249.055,255.848,252.149,253.376,253.493z"/>
						<path style="fill:#8150FE;" d="M234.376,263.822c-2.472,1.344-5.565,0.429-6.909-2.043c-1.344-2.472-0.429-5.565,2.043-6.909
							c2.472-1.344,5.565-0.429,6.909,2.043C237.763,259.384,236.848,262.478,234.376,263.822z"/>
					</g>
				</g>
			</g>
			<path style="fill:#FF9492;" d="M188.278,175.101l0.002-0.001l-0.045-0.053c-0.214-0.267-0.434-0.528-0.658-0.786L159.9,141.21
				l-0.259-0.089c-0.203-0.513-0.479-1.006-0.838-1.462l-13.633-17.363c-1.996-2.542-5.675-2.985-8.217-0.989
				c-2.542,1.996-2.985,5.675-0.989,8.217l3.754,4.781l-0.284-0.097l-27.259,3.097c-0.243-0.848-0.597-1.696-1.071-2.517
				c-2.434-4.215-7.037-6.114-10.281-4.241c-3.244,1.873-3.901,6.809-1.467,11.025c0.479,0.83,1.045,1.566,1.665,2.206
				c0.173,1.341,0.631,2.727,1.391,4.043c1.928,3.339,5.215,5.216,8.112,4.925c2.314,3.79,6.396,5.604,9.518,4.303
				c1.136,1.222,2.502,2.049,3.882,2.403l0.007,0.009l10.146,3.09l9.202,33.61c2.382,11.64,12.681,20.396,25.025,20.396
				c14.107,0,25.543-11.436,25.543-25.543C193.847,184.994,191.76,179.466,188.278,175.101z"/>
			<g>
				<path style="fill:#FF9492;stroke:#1D1D1B;stroke-width:0.5;stroke-miterlimit:10;" d="M101.018,143.781
					c-0.62-0.639-1.183-1.379-1.662-2.209c-2.434-4.215-1.777-9.151,1.467-11.025c3.244-1.873,7.847,0.026,10.281,4.241
					c0.759,1.314,1.217,2.698,1.39,4.037"/>
				<path style="fill:#FF9492;stroke:#1D1D1B;stroke-width:0.5;stroke-miterlimit:10;" d="M110.525,152.754
					c-2.896,0.291-6.185-1.595-8.113-4.934c-2.434-4.215-1.777-9.151,1.467-11.025c3.172-1.831,7.642-0.057,10.114,3.961"/>
				<path style="fill:#FF9492;stroke:#1D1D1B;stroke-width:0.5;stroke-miterlimit:10;" d="M120.043,157.049
					c-3.189,1.329-7.385-0.587-9.67-4.544c-2.434-4.216-1.777-9.151,1.467-11.024c3.013-1.739,7.197-0.226,9.728,3.374"/>
				<path style="fill:#FF9492;stroke:#1D1D1B;stroke-width:0.5;stroke-miterlimit:10;" d="M123.442,159.316
					c-1.815-0.613-3.563-2.044-4.741-4.084c-2.167-3.754-1.582-8.148,1.307-9.816c2.889-1.668,6.987,0.023,9.154,3.777"/>
			</g>
			<path style="fill:#FF9492;" d="M399.176,120.612c-3.244-1.873-7.847,0.026-10.281,4.241c-0.474,0.821-0.827,1.67-1.07,2.517
				l-27.259-3.097l-0.284,0.097l3.754-4.781c1.996-2.542,1.553-6.221-0.989-8.217c-2.542-1.996-6.221-1.553-8.217,0.989
				l-13.633,17.363c-0.358,0.456-0.635,0.949-0.837,1.462l-0.259,0.089l-27.677,33.05c-0.225,0.258-0.444,0.52-0.659,0.786
				l-0.044,0.053l0.002,0.001c-3.482,4.366-5.569,9.894-5.569,15.912c0,14.107,11.436,25.543,25.543,25.543
				c12.344,0,22.643-8.756,25.024-20.396l0,0l9.202-33.611l10.146-3.09l0.007-0.009c1.38-0.354,2.746-1.181,3.882-2.403
				c3.122,1.301,7.204-0.513,9.518-4.303c2.896,0.291,6.184-1.585,8.112-4.925c0.76-1.316,1.218-2.702,1.391-4.043
				c0.621-0.639,1.186-1.376,1.665-2.206C403.078,127.421,402.421,122.485,399.176,120.612z"/>
			<g>
				<path style="fill:#FF9492;stroke:#1D1D1B;stroke-width:0.5;stroke-miterlimit:10;" d="M398.981,133.846
					c0.62-0.639,1.183-1.379,1.662-2.209c2.434-4.215,1.777-9.151-1.467-11.025c-3.244-1.873-7.847,0.026-10.281,4.241
					c-0.758,1.314-1.217,2.698-1.39,4.037"/>
				<path style="fill:#FF9492;stroke:#1D1D1B;stroke-width:0.5;stroke-miterlimit:10;" d="M389.475,142.82
					c2.896,0.291,6.185-1.595,8.113-4.934c2.434-4.216,1.777-9.151-1.467-11.024c-3.172-1.831-7.642-0.057-10.114,3.961"/>
				<path style="fill:#FF9492;stroke:#1D1D1B;stroke-width:0.5;stroke-miterlimit:10;" d="M379.957,147.114
					c3.189,1.329,7.385-0.587,9.67-4.544c2.434-4.215,1.777-9.151-1.467-11.024c-3.013-1.739-7.197-0.226-9.728,3.374"/>
				<path style="fill:#FF9492;stroke:#1D1D1B;stroke-width:0.5;stroke-miterlimit:10;" d="M376.558,149.381
					c1.815-0.613,3.563-2.044,4.741-4.084c2.167-3.754,1.582-8.148-1.307-9.816c-2.889-1.668-6.987,0.023-9.154,3.776"/>
			</g>
			<g>
				<circle style="fill:#01BCFF;" cx="244.156" cy="55.203" r="12.012"/>
				<path style="fill:#FF9492;" d="M229.591,84.125c1.105-1.131,1.671-2.791,1.27-4.567c-0.41-1.814-1.888-3.268-3.708-3.651
					c-3.175-0.669-5.972,1.735-5.972,4.792c0,1.762,0.93,3.306,2.325,4.17c0.94,0.582,1.76,1.379,2.235,2.377
					c0.128,0.267,0.32,0.55,0.598,0.852c0.507,0.55,1.203,0.905,1.95,0.869c1.397-0.066,2.509-1.219,2.509-2.632
					C230.798,85.406,230.316,84.594,229.591,84.125z"/>
				<path style="fill:#FF9492;" d="M260.086,84.125c-1.105-1.131-1.671-2.791-1.27-4.567c0.41-1.814,1.888-3.268,3.708-3.651
					c3.175-0.669,5.972,1.735,5.972,4.792c0,1.762-0.93,3.306-2.325,4.17c-0.94,0.582-1.759,1.379-2.235,2.377
					c-0.128,0.267-0.32,0.55-0.598,0.852c-0.507,0.55-1.203,0.905-1.95,0.869c-1.397-0.066-2.509-1.219-2.509-2.632
					C258.88,85.406,259.362,84.594,260.086,84.125z"/>
				
					<ellipse transform="matrix(0.7071 -0.7071 0.7071 0.7071 14.9014 196.9105)" style="fill:#FF9492;" cx="245.143" cy="80.468" rx="17.349" ry="17.349"/>
				<g>
					<path style="fill:none;stroke:#1D1D1B;stroke-width:0.5;stroke-miterlimit:10;" d="M243.454,78.794l0.315,3.109
						c0.057,0.56-0.103,1.121-0.447,1.567l-1.704,2.209c-0.488,0.632-0.383,1.538,0.236,2.043l2.004,1.632"/>
					<path style="fill:#1D1D1B;" d="M239.126,81.679c0,1.052-0.607,1.904-1.356,1.904c-0.749,0-1.356-0.853-1.356-1.904
						c0-1.052,0.607-1.904,1.356-1.904C238.519,79.775,239.126,80.628,239.126,81.679z"/>
					<ellipse style="fill:#1D1D1B;" cx="250.58" cy="81.679" rx="1.356" ry="1.904"/>
					
						<line style="fill:none;stroke:#1D1D1B;stroke-width:2;stroke-linecap:round;stroke-miterlimit:10;" x1="235.722" y1="76.659" x2="239.126" y2="74.755"/>
					
						<line style="fill:none;stroke:#1D1D1B;stroke-width:2;stroke-linecap:round;stroke-miterlimit:10;" x1="249.224" y1="74.524" x2="252.917" y2="76.659"/>
					
						<line style="fill:none;stroke:#1D1D1B;stroke-width:0.5;stroke-miterlimit:10;" x1="243.454" y1="91.316" x2="245.416" y2="91.316"/>
				</g>
				<path style="fill:#01BCFF;" d="M245.143,63.118c-7.555,0-13.965,4.838-16.345,11.578c0.344,0.039,0.694,0.059,1.048,0.059
					c3.986,0,7.377-2.515,8.689-6.044c0.272-0.731,1.183-0.948,1.731-0.393c2.035,2.061,4.859,3.34,7.984,3.34
					c1.75,0,3.404-0.404,4.878-1.12c0.895-0.435,1.934,0.096,2.174,1.062c0.205,0.826,0.598,1.685,1.26,2.575
					c1.366,1.835,3.402,3.107,5.643,3.231C260.757,69.286,253.678,63.118,245.143,63.118z"/>
				<polygon style="fill:#FF9492;" points="237.53,92.508 232.144,113.512 258.688,113.512 253.148,91.97 				"/>
				<path style="fill:none;stroke:#1D1D1B;stroke-width:0.5;stroke-miterlimit:10;" d="M254.095,95.332
					c-2.614,1.577-5.677,2.485-8.952,2.485c-3.13,0-6.066-0.829-8.602-2.279"/>
				<path style="fill:#FF9492;" d="M245.898,108.655c-0.458,0.239-1.015,0.182-1.415-0.145l-7.106-5.818
					c-3.601-2.948-7.658-4.937-11.871-6.023c-0.523,1.82-0.809,3.741-0.809,5.729c0,11.443,9.276,20.719,20.719,20.719
					c11.443,0,20.719-9.276,20.719-20.719c0-1.257-0.118-2.487-0.333-3.683c-1.539,0.503-3.053,1.133-4.527,1.903L245.898,108.655z"
					/>
			</g>
			<g>
				
					<line style="fill:none;stroke:#1D1D1B;stroke-width:0.5;stroke-miterlimit:10;" x1="201.985" y1="128.106" x2="198.199" y2="185.805"/>
				
					<line style="fill:none;stroke:#1D1D1B;stroke-width:0.5;stroke-miterlimit:10;" x1="195.177" y1="132.191" x2="200.283" y2="149.723"/>
				
					<line style="fill:none;stroke:#1D1D1B;stroke-width:0.5;stroke-miterlimit:10;" x1="286.071" y1="127.255" x2="292.962" y2="185.645"/>
				
					<line style="fill:none;stroke:#1D1D1B;stroke-width:0.5;stroke-miterlimit:10;" x1="292.709" y1="131.34" x2="288.693" y2="149.75"/>
			</g>
			<g>
				<g>
					<path style="fill:#8150FE;" d="M191.13,438.614c0-6.002-3.929-11.082-9.354-12.82l-0.356,5.21
						c-0.271,3.964-2.551,7.512-6.04,9.406c-0.048,0.026-0.098,0.05-0.148,0.071l-25.525,10.806
						c-2.885,1.221-2.012,5.521,1.121,5.521h73.901c0.67,0,1.228-0.512,1.286-1.179l1.473-17.015H191.13z"/>
					<path style="fill:#682EDF;" d="M150.658,450.884l-0.952,0.403c-2.885,1.221-2.012,5.521,1.121,5.521h73.901
						c0.67,0,1.228-0.512,1.286-1.179l0.411-4.745H150.658z"/>
				</g>
				
					<line style="fill:none;stroke:#1D1D1B;stroke-width:0.5;stroke-miterlimit:10;" x1="175.773" y1="433.979" x2="183.943" y2="443.511"/>
				
					<line style="fill:none;stroke:#1D1D1B;stroke-width:0.5;stroke-miterlimit:10;" x1="171.177" y1="437.383" x2="179.347" y2="446.915"/>
			</g>
			<g>
				<g>
					<path style="fill:#8150FE;" d="M354.377,454.334l-23.867-10.335c-0.065-0.028-0.128-0.06-0.188-0.097
						c-4.525-2.773-7.534-7.467-8.161-12.741l-0.665-5.593c-5.85,1.465-10.189,6.742-10.189,13.046h-39.485l2.551,17.094
						c0.094,0.632,0.637,1.1,1.276,1.1h78.215C355.265,456.809,355.662,454.891,354.377,454.334z"/>
					<path style="fill:#682EDF;" d="M274.373,455.709c0.094,0.632,0.637,1.1,1.276,1.1h78.215c1.401,0,1.798-1.918,0.513-2.474
						l-7.967-3.45h-72.758L274.373,455.709z"/>
				</g>
				
					<line style="fill:none;stroke:#1D1D1B;stroke-width:0.5;stroke-miterlimit:10;" x1="327.432" y1="433.979" x2="319.262" y2="443.511"/>
				
					<line style="fill:none;stroke:#1D1D1B;stroke-width:0.5;stroke-miterlimit:10;" x1="332.028" y1="437.383" x2="323.858" y2="446.915"/>
			</g>
			<g>
				<path style="fill:#FFB03C;" d="M292.962,185.645l-17.332,0.029l-10.249-49.927l5.907-38.259
					c-1.852,0.232-3.695,0.641-5.504,1.234l-6.01,37.025h-33.389l-6.808-40.006c-1.767-0.102-3.536-0.053-5.29,0.145l6.892,39.861
					l-6.14,50.029l-16.841,0.028l-13.2,192.892l47.654,0.228l11.108-128.336l19.174,128.482l53.061,0.254L292.962,185.645z"/>
				<g>
					<polygon style="fill:#FFCF50;" points="262.935,379.07 315.996,379.325 313.042,354.489 259.267,354.489 					"/>
					<polygon style="fill:#FFCF50;" points="234.768,354.489 186.656,354.489 184.999,378.696 232.653,378.925 					"/>
				</g>
				
					<line style="fill:none;stroke:#1D1D1B;stroke-width:0.5;stroke-miterlimit:10;" x1="184.999" y1="378.696" x2="232.653" y2="378.696"/>
				
					<line style="fill:none;stroke:#1D1D1B;stroke-width:0.5;stroke-miterlimit:10;" x1="262.935" y1="379.07" x2="315.996" y2="379.07"/>
				
					<line style="fill:none;stroke:#1D1D1B;stroke-width:0.5;stroke-miterlimit:10;" x1="196.028" y1="216.447" x2="215.943" y2="202.404"/>
				
					<line style="fill:none;stroke:#1D1D1B;stroke-width:0.5;stroke-miterlimit:10;" x1="277.73" y1="200.617" x2="296.624" y2="217.979"/>
				<path style="fill:none;stroke:#1D1D1B;stroke-width:0.5;stroke-miterlimit:10;" d="M250.709,171.851h-14.213
					c-5.288,0-9.574-4.287-9.574-9.575v-15.14h33.362v15.14C260.283,167.564,255.997,171.851,250.709,171.851z"/>
			</g>
		</g>
		<g>
			<g>
				<path style="fill:none;stroke:#1D1D1B;stroke-width:0.3702;stroke-miterlimit:10;" d="M260.993,86.255
					c0,0-0.875-7.086,4.925-7.168"/>
				<path style="fill:none;stroke:#1D1D1B;stroke-width:0.3702;stroke-miterlimit:10;" d="M261.023,84.265
					c0,0,1.407-2.664,3.822-1.483"/>
			</g>
			<g>
				<path style="fill:none;stroke:#1D1D1B;stroke-width:0.3702;stroke-miterlimit:10;" d="M228.417,85.655
					c0,0,0.875-7.086-4.925-7.168"/>
				<path style="fill:none;stroke:#1D1D1B;stroke-width:0.3702;stroke-miterlimit:10;" d="M228.387,83.665
					c0,0-1.407-2.664-3.822-1.483"/>
			</g>
		</g>
	</g>
	
		<line style="fill:none;stroke:#1D1D1B;stroke-width:1.0366;stroke-linecap:round;stroke-miterlimit:10;" x1="92.131" y1="456.809" x2="407.869" y2="456.809"/>
</g>
</svg>
